#define 8cd116d55da0421ab0bab9884e6648777HSG5CKmz5DUhY77_width 128
#define 8cd116d55da0421ab0bab9884e6648777HSG5CKmz5DUhY77_height 128
static char 8cd116d55da0421ab0bab9884e6648777HSG5CKmz5DUhY77_bits[] = {
  0x00, 0x00, 0x00, 0x00, 0x00, 0x00, 0x00, 0x00, 0x00, 0x00, 0x00, 0x00, 
  0x00, 0x00, 0x00, 0x00, 0x00, 0x00, 0x00, 0x00, 0x00, 0x00, 0x00, 0x00, 
  0x00, 0x00, 0x00, 0x00, 0x00, 0x00, 0x00, 0x00, 0x00, 0x00, 0x00, 0x00, 
  0x00, 0x00, 0x00, 0x00, 0x00, 0x00, 0x00, 0x00, 0x00, 0x00, 0x00, 0x00, 
  0x00, 0x00, 0x00, 0x00, 0x00, 0x00, 0x00, 0x00, 0x00, 0x00, 0x00, 0x00, 
  0x00, 0x00, 0x00, 0x00, 0x00, 0x00, 0x00, 0x80, 0x05, 0x00, 0x00, 0x00, 
  0x00, 0x00, 0x00, 0x00, 0x00, 0x00, 0x00, 0x00, 0x00, 0x00, 0x00, 0x40, 
  0x7D, 0x00, 0x00, 0x00, 0x00, 0x00, 0x00, 0x00, 0x00, 0x00, 0x00, 0x00, 
  0x00, 0x00, 0x00, 0x00, 0xE0, 0xA7, 0x00, 0x00, 0x00, 0x00, 0x00, 0x00, 
  0x00, 0x00, 0x00, 0x00, 0x00, 0x00, 0x00, 0x00, 0x00, 0xDA, 0xFB, 0x43, 
  0x00, 0x00, 0x80, 0x02, 0x00, 0x00, 0x00, 0x00, 0x00, 0x00, 0x00, 0x00, 
  0x00, 0x90, 0xFF, 0xFF, 0xFF, 0xFF, 0xFF, 0xFF, 0x47, 0xA2, 0x00, 0x00, 
  0x00, 0x00, 0x00, 0x08, 0x00, 0x01, 0xC4, 0x55, 0xFF, 0xFF, 0xFF, 0xFF, 
  0xFF, 0xFF, 0x0F, 0x00, 0x00, 0x00, 0x00, 0x08, 0x00, 0x80, 0xA2, 0x01, 
  0x29, 0x6E, 0x15, 0x85, 0xEF, 0xFF, 0x0F, 0x00, 0x00, 0x00, 0x00, 0x00, 
  0x00, 0x04, 0x40, 0x22, 0x00, 0x00, 0x80, 0x80, 0x02, 0x80, 0x0F, 0x00, 
  0x00, 0x00, 0x00, 0x00, 0x00, 0x00, 0x50, 0x08, 0x40, 0x00, 0x14, 0x00, 
  0x04, 0x00, 0x07, 0x00, 0x00, 0x00, 0x00, 0x04, 0x00, 0x42, 0x0A, 0x0A, 
  0x01, 0x11, 0x00, 0x12, 0x00, 0x04, 0x03, 0x00, 0x00, 0x00, 0x00, 0x02, 
  0x20, 0x68, 0x12, 0x90, 0x00, 0x04, 0x40, 0x80, 0x02, 0x90, 0x01, 0x00, 
  0x00, 0x00, 0x00, 0x06, 0x00, 0x01, 0x40, 0x06, 0x28, 0x80, 0x04, 0x08, 
  0x70, 0xC2, 0x01, 0x00, 0x00, 0x00, 0x00, 0x00, 0x00, 0x04, 0x00, 0x45, 
  0x00, 0x01, 0x80, 0x01, 0x10, 0xC1, 0x01, 0x00, 0x00, 0x00, 0x00, 0x02, 
  0x00, 0x98, 0xD5, 0x00, 0x20, 0x20, 0x08, 0x10, 0xE2, 0xF0, 0x00, 0x00, 
  0x00, 0x00, 0xC0, 0x00, 0x00, 0x00, 0x08, 0x00, 0x22, 0x88, 0x01, 0x80, 
  0x00, 0xE8, 0x00, 0x00, 0x00, 0x00, 0x00, 0x00, 0x00, 0x00, 0x60, 0x04, 
  0x00, 0x00, 0x10, 0x08, 0x45, 0x70, 0x00, 0x00, 0x00, 0x00, 0x00, 0x00, 
  0x00, 0x00, 0x00, 0x00, 0x02, 0x40, 0x00, 0x00, 0x40, 0x60, 0x00, 0x00, 
  0x00, 0x00, 0x40, 0x00, 0x00, 0x00, 0x00, 0x21, 0x00, 0x00, 0x00, 0x80, 
  0x04, 0x38, 0x00, 0x00, 0x00, 0x00, 0x60, 0x00, 0x00, 0x00, 0x00, 0x00, 
  0x00, 0x04, 0x88, 0x12, 0x00, 0x3C, 0x00, 0x00, 0x00, 0x00, 0x20, 0x00, 
  0x00, 0x00, 0x20, 0x00, 0x20, 0x00, 0x01, 0x00, 0x21, 0x18, 0x00, 0x00, 
  0x00, 0x00, 0x00, 0x00, 0x00, 0x00, 0x00, 0x00, 0x00, 0x08, 0x40, 0x00, 
  0x20, 0x1C, 0x00, 0x00, 0x00, 0x00, 0x30, 0x00, 0x00, 0x00, 0x00, 0x00, 
  0x00, 0x00, 0x00, 0x18, 0x00, 0x1E, 0x00, 0x00, 0x00, 0x00, 0x10, 0x02, 
  0x00, 0x00, 0x00, 0x00, 0x04, 0x00, 0x42, 0x00, 0x04, 0x0E, 0x00, 0x00, 
  0x00, 0x00, 0x10, 0x10, 0x00, 0x00, 0x00, 0x00, 0x00, 0x00, 0x00, 0x00, 
  0x80, 0x0E, 0x00, 0x00, 0x00, 0x00, 0x08, 0x7E, 0x00, 0x00, 0x00, 0x00, 
  0x00, 0x00, 0x00, 0x92, 0x40, 0x07, 0x00, 0x00, 0x00, 0x00, 0x10, 0x7E, 
  0x00, 0x00, 0x00, 0x00, 0x00, 0x00, 0x00, 0x00, 0x01, 0x07, 0x00, 0x00, 
  0x00, 0x00, 0x0C, 0x7E, 0x00, 0x00, 0x00, 0x00, 0x00, 0x00, 0x00, 0x00, 
  0x60, 0x03, 0x00, 0x00, 0x00, 0x00, 0x04, 0x7E, 0x00, 0x00, 0x00, 0x00, 
  0x00, 0x00, 0x28, 0x00, 0x80, 0x03, 0x00, 0x00, 0x00, 0x00, 0x04, 0x3E, 
  0x00, 0x00, 0x00, 0x00, 0x00, 0x20, 0x01, 0x14, 0xA8, 0x03, 0x00, 0x00, 
  0x00, 0x00, 0x04, 0x0C, 0x00, 0x00, 0x00, 0x00, 0xC0, 0x01, 0x40, 0x00, 
  0x80, 0x03, 0x00, 0x00, 0x00, 0x00, 0x04, 0x00, 0x00, 0x00, 0x00, 0x00, 
  0xE0, 0x07, 0x00, 0x00, 0xC0, 0x01, 0x00, 0x00, 0x00, 0x00, 0x14, 0x00, 
  0x00, 0x00, 0x00, 0x00, 0xE0, 0x07, 0x04, 0x00, 0x9A, 0x00, 0x00, 0x00, 
  0x00, 0x00, 0x04, 0x02, 0x00, 0x00, 0x00, 0x00, 0xF0, 0x8F, 0x08, 0x41, 
  0xC8, 0x01, 0x00, 0x00, 0x00, 0x00, 0x02, 0x00, 0x00, 0x00, 0x00, 0x00, 
  0xC0, 0x07, 0x40, 0x00, 0x63, 0x00, 0x00, 0x00, 0x00, 0x00, 0x82, 0x00, 
  0x00, 0x00, 0x00, 0x00, 0xE0, 0x27, 0x00, 0x00, 0xC4, 0x00, 0x00, 0x00, 
  0x00, 0x00, 0x0A, 0x00, 0x00, 0x00, 0x00, 0x00, 0x00, 0x03, 0x20, 0x24, 
  0xF2, 0x00, 0x00, 0x00, 0x00, 0x00, 0x21, 0x02, 0x00, 0x02, 0x00, 0x00, 
  0x00, 0x41, 0x01, 0x00, 0xD4, 0x00, 0x00, 0x00, 0x00, 0x00, 0x23, 0x06, 
  0x00, 0x01, 0x00, 0x00, 0x00, 0x00, 0x20, 0x22, 0xE5, 0x00, 0x00, 0x00, 
  0x00, 0x00, 0x21, 0x04, 0x00, 0x01, 0x00, 0x00, 0x00, 0x10, 0x00, 0x80, 
  0x79, 0x00, 0x00, 0x00, 0x00, 0x00, 0x21, 0x06, 0x80, 0x03, 0x01, 0x00, 
  0x00, 0x08, 0x44, 0x88, 0x74, 0x00, 0x00, 0x00, 0x00, 0x00, 0x41, 0x06, 
  0x00, 0x83, 0x03, 0x00, 0x00, 0x00, 0x80, 0x00, 0x76, 0x00, 0x00, 0x00, 
  0x00, 0x80, 0x05, 0x04, 0x00, 0x83, 0x01, 0x00, 0x00, 0x00, 0x04, 0x42, 
  0x39, 0x00, 0x00, 0x00, 0x00, 0x80, 0x04, 0x00, 0x80, 0xC6, 0x00, 0x00, 
  0x00, 0xA0, 0x10, 0x80, 0x34, 0x00, 0x00, 0x00, 0x00, 0x80, 0x00, 0x00, 
  0x00, 0x4E, 0x00, 0x00, 0x00, 0x01, 0x00, 0x60, 0x3A, 0x00, 0x00, 0x00, 
  0x00, 0x80, 0x00, 0x00, 0x00, 0x6E, 0x00, 0x00, 0x00, 0x80, 0x40, 0x20, 
  0x3A, 0x00, 0x00, 0x00, 0x00, 0x80, 0x01, 0x00, 0x00, 0x1C, 0x00, 0x00, 
  0x00, 0x18, 0x11, 0x84, 0x39, 0x00, 0x00, 0x00, 0x00, 0x00, 0x00, 0x00, 
  0x00, 0x00, 0x00, 0x00, 0x10, 0x18, 0x00, 0x21, 0x3C, 0x00, 0x00, 0x00, 
  0x00, 0x80, 0x00, 0x00, 0x00, 0x00, 0x00, 0x00, 0x80, 0x41, 0x08, 0xC0, 
  0x3E, 0x00, 0x00, 0x00, 0x00, 0xC0, 0x10, 0x00, 0x00, 0x00, 0x00, 0x00, 
  0x08, 0x82, 0x00, 0x20, 0x3F, 0x00, 0x00, 0x00, 0x00, 0xC0, 0x00, 0x00, 
  0x00, 0x00, 0x00, 0x00, 0x10, 0x00, 0x00, 0x44, 0x3C, 0x00, 0x00, 0x00, 
  0x00, 0xC0, 0x00, 0x00, 0x00, 0x00, 0x00, 0x00, 0x00, 0x10, 0xA1, 0x40, 
  0x1E, 0x00, 0x00, 0x00, 0x00, 0xC0, 0x00, 0x00, 0x00, 0x00, 0x00, 0x00, 
  0x00, 0x00, 0x00, 0x92, 0x1E, 0x00, 0x00, 0x00, 0x00, 0xC0, 0x00, 0x00, 
  0x00, 0x00, 0x00, 0x00, 0x00, 0x00, 0x20, 0x94, 0x1F, 0x00, 0x00, 0x00, 
  0x00, 0x60, 0x00, 0x00, 0x00, 0x00, 0x00, 0x00, 0x00, 0x10, 0x00, 0x40, 
  0x1E, 0x00, 0x00, 0x00, 0x00, 0xC0, 0x00, 0x00, 0x00, 0x00, 0x00, 0x00, 
  0x00, 0x00, 0x02, 0x60, 0x0E, 0x00, 0x00, 0x00, 0x00, 0x40, 0x00, 0x00, 
  0x00, 0x00, 0x00, 0x00, 0x60, 0x81, 0x40, 0x92, 0x1B, 0x00, 0x00, 0x00, 
  0x00, 0x40, 0x00, 0x00, 0x00, 0x00, 0x00, 0x00, 0x00, 0x20, 0x48, 0x18, 
  0x1E, 0x00, 0x00, 0x00, 0x00, 0x40, 0x00, 0x00, 0x00, 0x00, 0x00, 0x00, 
  0x00, 0x04, 0x00, 0x60, 0x1F, 0x00, 0x00, 0x00, 0x00, 0x40, 0x00, 0x00, 
  0x00, 0x00, 0x00, 0x00, 0x00, 0x00, 0x01, 0x9A, 0x1E, 0x00, 0x00, 0x00, 
  0x00, 0x60, 0x00, 0x00, 0x00, 0x00, 0x00, 0x00, 0x20, 0x20, 0x20, 0x40, 
  0x0E, 0x00, 0x00, 0x00, 0x00, 0x60, 0x00, 0x00, 0x00, 0x00, 0x00, 0x00, 
  0x80, 0x00, 0x00, 0xD0, 0x1E, 0x00, 0x00, 0x00, 0x00, 0x60, 0x00, 0x90, 
  0x18, 0xDC, 0x53, 0x02, 0x00, 0x60, 0x16, 0x2A, 0x1E, 0x00, 0x00, 0x00, 
  0x00, 0x60, 0x00, 0x00, 0xC1, 0xA6, 0x5F, 0xFE, 0x41, 0xFD, 0x55, 0x02, 
  0x0F, 0x00, 0x00, 0x00, 0x00, 0x60, 0x00, 0x00, 0x80, 0x00, 0xB0, 0xF3, 
  0x7F, 0xC6, 0x0E, 0xD0, 0x0D, 0x00, 0x00, 0x00, 0x00, 0x60, 0x00, 0x20, 
  0x00, 0x00, 0xF0, 0x57, 0xBC, 0x4E, 0x29, 0x68, 0x0F, 0x00, 0x00, 0x00, 
  0x00, 0x70, 0x00, 0x00, 0x00, 0x00, 0x00, 0x20, 0x6A, 0xA4, 0x00, 0x80, 
  0x0F, 0x00, 0x00, 0x00, 0x00, 0x60, 0x00, 0x00, 0x00, 0x00, 0x00, 0x02, 
  0xA4, 0x28, 0x01, 0x52, 0x0F, 0x00, 0x00, 0x00, 0x00, 0x60, 0x00, 0x02, 
  0x00, 0x00, 0x00, 0x00, 0x00, 0x02, 0x48, 0xA0, 0x0F, 0x00, 0x00, 0x00, 
  0x00, 0x60, 0x00, 0x04, 0x00, 0x00, 0x00, 0x01, 0x00, 0x08, 0x08, 0x82, 
  0x0F, 0x00, 0x00, 0x00, 0x00, 0x60, 0x00, 0x00, 0x22, 0x00, 0x00, 0x00, 
  0x44, 0x00, 0x00, 0xA0, 0x0F, 0x00, 0x00, 0x00, 0x00, 0x70, 0x00, 0x54, 
  0x6C, 0x10, 0x00, 0x00, 0x00, 0x81, 0x10, 0x90, 0x0F, 0x00, 0x00, 0x00, 
  0x00, 0x60, 0x11, 0x80, 0x71, 0xEE, 0xD9, 0xD0, 0x11, 0x95, 0x1F, 0xA0, 
  0x0F, 0x00, 0x00, 0x00, 0x00, 0x70, 0x04, 0x24, 0x64, 0xEC, 0xDF, 0xDD, 
  0xEF, 0xBD, 0x1F, 0xA4, 0x1F, 0x00, 0x00, 0x00, 0x00, 0x60, 0x00, 0x00, 
  0x00, 0x93, 0xFF, 0x7F, 0xFE, 0x9F, 0x43, 0x40, 0x0F, 0x00, 0x00, 0x00, 
  0x00, 0x60, 0x00, 0x80, 0x00, 0x04, 0x14, 0xDF, 0x53, 0x9C, 0x01, 0x51, 
  0x0F, 0x00, 0x00, 0x00, 0x00, 0x60, 0x00, 0x00, 0x81, 0x80, 0x20, 0x00, 
  0x84, 0x02, 0x08, 0x00, 0x1F, 0x00, 0x00, 0x00, 0x00, 0x60, 0x10, 0x00, 
  0x00, 0x00, 0x04, 0x80, 0x80, 0x41, 0x80, 0x90, 0x0F, 0x00, 0x00, 0x00, 
  0x00, 0x60, 0x00, 0x08, 0x80, 0x48, 0x80, 0x08, 0x00, 0x00, 0x00, 0x80, 
  0x0F, 0x00, 0x00, 0x00, 0x00, 0xE0, 0x00, 0x00, 0x00, 0x00, 0x14, 0x00, 
  0x08, 0x10, 0x04, 0x81, 0x1F, 0x00, 0x00, 0x00, 0x00, 0xE0, 0x00, 0x40, 
  0x80, 0x00, 0x00, 0x11, 0x00, 0x00, 0x00, 0x60, 0x0F, 0x00, 0x00, 0x00, 
  0x00, 0xC0, 0x00, 0x10, 0x09, 0x20, 0x20, 0x10, 0x10, 0x08, 0x00, 0x60, 
  0x0F, 0x00, 0x00, 0x00, 0x00, 0x40, 0x00, 0x00, 0x00, 0x00, 0x00, 0x00, 
  0x00, 0x40, 0x14, 0x04, 0x1D, 0x00, 0x00, 0x00, 0x00, 0xC0, 0x00, 0x04, 
  0x00, 0x00, 0x02, 0x00, 0x41, 0x20, 0x05, 0x80, 0x3F, 0x00, 0x00, 0x00, 
  0x00, 0xE0, 0x04, 0x60, 0x53, 0x7F, 0x68, 0xD9, 0xB6, 0xF7, 0x4F, 0x44, 
  0x1E, 0x00, 0x00, 0x00, 0x00, 0xC0, 0x00, 0x40, 0xFA, 0x3F, 0x6E, 0xFF, 
  0xFD, 0xFF, 0x17, 0x40, 0x3F, 0x00, 0x00, 0x00, 0x00, 0xC0, 0x00, 0x88, 
  0x88, 0x89, 0xFF, 0xFD, 0xFF, 0x27, 0x00, 0x88, 0x3E, 0x00, 0x00, 0x00, 
  0x00, 0xC0, 0x00, 0x00, 0x00, 0x88, 0xBF, 0xD8, 0x81, 0x41, 0x02, 0xA0, 
  0x3F, 0x00, 0x00, 0x00, 0x00, 0xE0, 0x48, 0x00, 0x40, 0x00, 0x08, 0x08, 
  0x12, 0x02, 0x80, 0x00, 0x3C, 0x00, 0x00, 0x00, 0x00, 0xC0, 0x00, 0x08, 
  0x04, 0x14, 0x00, 0x02, 0x08, 0x00, 0x00, 0x88, 0x7E, 0x00, 0x00, 0x00, 
  0x00, 0x80, 0x00, 0x00, 0x00, 0x00, 0x10, 0x40, 0x40, 0x04, 0x00, 0x02, 
  0x7C, 0x00, 0x00, 0x00, 0x00, 0x80, 0x10, 0x00, 0x00, 0x00, 0x01, 0x00, 
  0x02, 0x20, 0x14, 0xC0, 0x7D, 0x00, 0x00, 0x00, 0x00, 0x80, 0x01, 0x20, 
  0x80, 0x40, 0x80, 0x20, 0x20, 0x02, 0x00, 0x00, 0x7E, 0x00, 0x00, 0x00, 
  0x00, 0x80, 0x01, 0x04, 0x02, 0x00, 0x11, 0x20, 0x80, 0x02, 0x00, 0x80, 
  0xFA, 0x00, 0x00, 0x00, 0x00, 0x00, 0x01, 0x02, 0x00, 0x00, 0x00, 0x00, 
  0x02, 0x40, 0x00, 0x00, 0xF8, 0x00, 0x00, 0x00, 0x00, 0x00, 0x03, 0x14, 
  0x00, 0x00, 0x00, 0x00, 0x00, 0x04, 0x20, 0x81, 0xFB, 0x00, 0x00, 0x00, 
  0x00, 0x00, 0x03, 0x80, 0xD2, 0x5A, 0x44, 0x81, 0x20, 0x20, 0xD6, 0x05, 
  0xF8, 0x00, 0x00, 0x00, 0x00, 0x00, 0x43, 0x80, 0x6A, 0x7A, 0xFD, 0x52, 
  0x63, 0xFD, 0x9B, 0x00, 0xF1, 0x01, 0x00, 0x00, 0x00, 0x00, 0x07, 0x00, 
  0xA1, 0x44, 0x7B, 0xFF, 0xFF, 0x66, 0x23, 0x84, 0xFC, 0x01, 0x00, 0x00, 
  0x00, 0x00, 0x07, 0x00, 0x00, 0x80, 0x04, 0xE6, 0x5A, 0x5B, 0x41, 0x80, 
  0xF5, 0x03, 0x00, 0x00, 0x00, 0x00, 0x06, 0x06, 0x02, 0x04, 0x20, 0x00, 
  0x00, 0x00, 0x08, 0x00, 0xF1, 0x03, 0x00, 0x00, 0x00, 0x00, 0x26, 0x00, 
  0x20, 0x00, 0x00, 0x40, 0x00, 0x44, 0x80, 0x00, 0xD4, 0x03, 0x00, 0x00, 
  0x00, 0x00, 0x0E, 0x60, 0x00, 0x00, 0x40, 0x04, 0x10, 0x00, 0x00, 0x10, 
  0x88, 0x07, 0x00, 0x00, 0x00, 0x00, 0x0C, 0xE0, 0x7F, 0x95, 0x04, 0x00, 
  0x02, 0x18, 0x00, 0x00, 0xAA, 0x07, 0x00, 0x00, 0x00, 0x00, 0x3C, 0x20, 
  0xDA, 0xBF, 0x1D, 0x22, 0x40, 0x00, 0x04, 0x04, 0xA0, 0x07, 0x00, 0x00, 
  0x00, 0x00, 0x28, 0x00, 0x60, 0x04, 0xEC, 0x6D, 0x80, 0x00, 0x50, 0x02, 
  0x24, 0x0F, 0x00, 0x00, 0x00, 0x00, 0x10, 0x40, 0x84, 0x56, 0x00, 0x98, 
  0x5F, 0x91, 0x59, 0x4A, 0x80, 0x0F, 0x00, 0x00, 0x00, 0x00, 0x30, 0x05, 
  0x56, 0x09, 0x01, 0x00, 0x84, 0x57, 0x2E, 0x00, 0x30, 0x0F, 0x00, 0x00, 
  0x00, 0x00, 0x60, 0x91, 0x91, 0xD4, 0xAA, 0x25, 0x08, 0x88, 0x10, 0x14, 
  0x4A, 0x0E, 0x00, 0x00, 0x00, 0x00, 0x80, 0x84, 0xA9, 0x22, 0x01, 0x11, 
  0x21, 0x48, 0x04, 0x14, 0x5A, 0x1F, 0x00, 0x00, 0x00, 0x00, 0x40, 0x2A, 
  0x56, 0x69, 0xDC, 0x4C, 0xAA, 0x61, 0x69, 0xA5, 0x34, 0x0E, 0x00, 0x00, 
  0x00, 0x00, 0x40, 0x64, 0x44, 0x96, 0x02, 0xA0, 0x15, 0x9A, 0x3A, 0x82, 
  0xA9, 0x1D, 0x00, 0x00, 0x00, 0x00, 0x80, 0x81, 0xA9, 0x45, 0x64, 0x8A, 
  0xC4, 0x26, 0x82, 0x18, 0x56, 0x3E, 0x00, 0x00, 0x00, 0x00, 0x00, 0x97, 
  0x61, 0x92, 0x43, 0x20, 0x0A, 0x9E, 0x91, 0x65, 0xAB, 0xB5, 0x00, 0x00, 
  0x00, 0x00, 0x00, 0x64, 0x96, 0xA4, 0x18, 0xAA, 0x68, 0x73, 0x2D, 0x92, 
  0x56, 0xFA, 0x01, 0x00, 0x00, 0x00, 0x00, 0xAF, 0x21, 0x2D, 0x16, 0x82, 
  0xE5, 0xFF, 0x97, 0x2D, 0xA5, 0xE7, 0x00, 0x00, 0x00, 0x00, 0x00, 0xBC, 
  0x5F, 0x92, 0xC4, 0x18, 0x90, 0xAE, 0xFE, 0xFB, 0x7F, 0xD8, 0x00, 0x00, 
  0x00, 0x00, 0x00, 0xC0, 0xFF, 0x9B, 0x89, 0x50, 0x65, 0xDB, 0x5B, 0xFF, 
  0x5F, 0x14, 0x02, 0x00, 0x00, 0x00, 0x00, 0x00, 0xFC, 0xFF, 0x25, 0x05, 
  0xC0, 0x7E, 0x5E, 0xEA, 0xBD, 0x19, 0x07, 0x00, 0x00, 0x00, 0x00, 0x00, 
  0xF0, 0xFF, 0x6F, 0x54, 0xE8, 0xFF, 0xFF, 0xFF, 0xFF, 0xF7, 0x07, 0x00, 
  0x00, 0x00, 0x00, 0x00, 0x00, 0xDA, 0xFF, 0x6B, 0xE2, 0xDB, 0x5F, 0xFF, 
  0xFF, 0xFB, 0x03, 0x00, 0x00, 0x00, 0x00, 0x00, 0x00, 0x00, 0xFE, 0xFF, 
  0xFF, 0xFF, 0xFF, 0xFF, 0xFF, 0x3F, 0x00, 0x00, 0x00, 0x00, 0x00, 0x00, 
  0x00, 0x00, 0xF0, 0xFF, 0xFF, 0xFF, 0xFF, 0xFF, 0xF7, 0x01, 0x00, 0x00, 
  0x00, 0x00, 0x00, 0x00, 0x00, 0x00, 0x00, 0x10, 0xE4, 0xFF, 0xFF, 0x6F, 
  0x01, 0x00, 0x00, 0x00, 0x00, 0x00, 0x00, 0x00, 0x00, 0x00, 0x00, 0x00, 
  0x00, 0xC0, 0x26, 0x00, 0x00, 0x00, 0x00, 0x00, };
